<?xml version="1.0" standalone="no"?><svg xmlns="http://www.w3.org/2000/svg" viewBox="0 0 1440 320"><path fill="#273036" fill-opacity="1" d="M0,224L6.2,234.7C12.3,245,25,267,37,277.3C49.2,288,62,288,74,266.7C86.2,245,98,203,111,202.7C123.1,203,135,245,148,245.3C160,245,172,203,185,170.7C196.9,139,209,117,222,128C233.8,139,246,181,258,208C270.8,235,283,245,295,245.3C307.7,245,320,235,332,218.7C344.6,203,357,181,369,197.3C381.5,213,394,267,406,293.3C418.5,320,431,320,443,288C455.4,256,468,192,480,170.7C492.3,149,505,171,517,170.7C529.2,171,542,149,554,160C566.2,171,578,213,591,229.3C603.1,245,615,235,628,229.3C640,224,652,224,665,213.3C676.9,203,689,181,702,165.3C713.8,149,726,139,738,138.7C750.8,139,763,149,775,144C787.7,139,800,117,812,112C824.6,107,837,117,849,122.7C861.5,128,874,128,886,144C898.5,160,911,192,923,218.7C935.4,245,948,267,960,277.3C972.3,288,985,288,997,272C1009.2,256,1022,224,1034,186.7C1046.2,149,1058,107,1071,74.7C1083.1,43,1095,21,1108,53.3C1120,85,1132,171,1145,197.3C1156.9,224,1169,192,1182,186.7C1193.8,181,1206,203,1218,224C1230.8,245,1243,267,1255,272C1267.7,277,1280,267,1292,261.3C1304.6,256,1317,256,1329,256C1341.5,256,1354,256,1366,234.7C1378.5,213,1391,171,1403,170.7C1415.4,171,1428,213,1434,234.7L1440,256L1440,0L1433.8,0C1427.7,0,1415,0,1403,0C1390.8,0,1378,0,1366,0C1353.8,0,1342,0,1329,0C1316.9,0,1305,0,1292,0C1280,0,1268,0,1255,0C1243.1,0,1231,0,1218,0C1206.2,0,1194,0,1182,0C1169.2,0,1157,0,1145,0C1132.3,0,1120,0,1108,0C1095.4,0,1083,0,1071,0C1058.5,0,1046,0,1034,0C1021.5,0,1009,0,997,0C984.6,0,972,0,960,0C947.7,0,935,0,923,0C910.8,0,898,0,886,0C873.8,0,862,0,849,0C836.9,0,825,0,812,0C800,0,788,0,775,0C763.1,0,751,0,738,0C726.2,0,714,0,702,0C689.2,0,677,0,665,0C652.3,0,640,0,628,0C615.4,0,603,0,591,0C578.5,0,566,0,554,0C541.5,0,529,0,517,0C504.6,0,492,0,480,0C467.7,0,455,0,443,0C430.8,0,418,0,406,0C393.8,0,382,0,369,0C356.9,0,345,0,332,0C320,0,308,0,295,0C283.1,0,271,0,258,0C246.2,0,234,0,222,0C209.2,0,197,0,185,0C172.3,0,160,0,148,0C135.4,0,123,0,111,0C98.5,0,86,0,74,0C61.5,0,49,0,37,0C24.6,0,12,0,6,0L0,0Z"></path></svg>